<?xml version="1.0" standalone="no"?><svg xmlns:xlink="http://www.w3.org/1999/xlink" xmlns="http://www.w3.org/2000/svg" viewBox="0 0 1000 1500.015404522768" preserveAspectRatio="xMaxYMax slice"><g transform="scale(1.9255653459855815)"><rect x="0" y="0" width="519.3333333333334" height="779" fill="#ffffff"/><path d="M 129.83 129.84 A 64.92 64.92 0 0 1  194.75 64.92 L 129.83 129.84 A 64.92 64.92 0 0 0 194.75 64.92" fill="#ff7cb4"/><path d="M 0 194.75 A 64.92 64.92 0 0 1  64.92 129.83 L 0 194.75 A 64.92 64.92 0 0 0 64.92 129.83" fill="#ff89bc"/><path d="M 194.75 129.83 A 64.92 64.92 0 0 1  259.67 194.75 L 194.75 129.83 A 64.92 64.92 0 0 0 259.67 194.75" fill="#ff0e76"/><path d="M 194.75 259.67 A 64.92 64.92 0 0 1  259.67 194.75 L 194.75 259.67 A 64.92 64.92 0 0 0 259.67 194.75" fill="#fff9fc"/><path d="M 129.83 259.67 A 64.92 64.92 0 0 1  194.75 324.59000000000003 L 129.83 259.67 A 64.92 64.92 0 0 0 194.75 324.59000000000003" fill="#79adff"/><path d="M 194.75 259.67 A 64.92 64.92 0 0 1  259.67 324.59000000000003 L 194.75 259.67 A 64.92 64.92 0 0 0 259.67 324.59000000000003" fill="#ff80b7"/><path d="M 259.67 259.67 A 64.92 64.92 0 0 1  324.59000000000003 324.59000000000003 L 259.67 259.67 A 64.92 64.92 0 0 0 324.59000000000003 324.59000000000003" fill="#ffadd1"/><path d="M 389.5 324.59000000000003 A 64.92 64.92 0 0 1  454.42 259.67 L 389.5 324.59000000000003 A 64.92 64.92 0 0 0 454.42 259.67" fill="#3b87ff"/><path d="M 129.83 324.58 A 64.92 64.92 0 0 1  194.75 389.5 L 129.83 324.58 A 64.92 64.92 0 0 0 194.75 389.5" fill="#ff2c87"/><path d="M 259.67 324.58 A 64.92 64.92 0 0 1  324.59000000000003 389.5 L 259.67 324.58 A 64.92 64.92 0 0 0 324.59000000000003 389.5" fill="#ff338b"/><path d="M 454.42 324.58 A 64.92 64.92 0 0 1  519.34 389.5 L 454.42 324.58 A 64.92 64.92 0 0 0 519.34 389.5" fill="#ff8bbd"/><path d="M 0 389.5 A 64.92 64.92 0 0 1  64.92 454.42 L 0 389.5 A 64.92 64.92 0 0 0 64.92 454.42" fill="#4a90ff"/><path d="M 194.75 454.42 A 64.92 64.92 0 0 1  259.67 389.5 L 194.75 454.42 A 64.92 64.92 0 0 0 259.67 389.5" fill="#ffc3dd"/><path d="M 259.67 454.42 A 64.92 64.92 0 0 1  324.59000000000003 389.5 L 259.67 454.42 A 64.92 64.92 0 0 0 324.59000000000003 389.5" fill="#deebff"/><path d="M 324.58 389.5 A 64.92 64.92 0 0 1  389.5 454.42 L 324.58 389.5 A 64.92 64.92 0 0 0 389.5 454.42" fill="#ffcae1"/><path d="M 389.5 389.5 A 64.92 64.92 0 0 1  454.42 454.42 L 389.5 389.5 A 64.92 64.92 0 0 0 454.42 454.42" fill="#cadeff"/><path d="M 454.42 389.5 A 64.92 64.92 0 0 1  519.34 454.42 L 454.42 389.5 A 64.92 64.92 0 0 0 519.34 454.42" fill="#ff187c"/><path d="M 129.83 454.42 A 64.92 64.92 0 0 1  194.75 519.34 L 129.83 454.42 A 64.92 64.92 0 0 0 194.75 519.34" fill="#fffcfd"/><path d="M 194.75 519.34 A 64.92 64.92 0 0 1  259.67 454.42 L 194.75 519.34 A 64.92 64.92 0 0 0 259.67 454.42" fill="#ffecf4"/><path d="M 324.58 519.34 A 64.92 64.92 0 0 1  389.5 454.42 L 324.58 519.34 A 64.92 64.92 0 0 0 389.5 454.42" fill="#ffeff6"/><path d="M 389.5 454.42 A 64.92 64.92 0 0 1  454.42 519.34 L 389.5 454.42 A 64.92 64.92 0 0 0 454.42 519.34" fill="#b2d0ff"/><path d="M 454.42 519.34 A 64.92 64.92 0 0 1  519.34 454.42 L 454.42 519.34 A 64.92 64.92 0 0 0 519.34 454.42" fill="#ff3d90"/><path d="M 0 519.33 A 64.92 64.92 0 0 1  64.92 584.25 L 0 519.33 A 64.92 64.92 0 0 0 64.92 584.25" fill="#ff0872"/><path d="M 129.83 584.25 A 64.92 64.92 0 0 1  194.75 519.33 L 129.83 584.25 A 64.92 64.92 0 0 0 194.75 519.33" fill="#f1f6ff"/><path d="M 324.58 584.25 A 64.92 64.92 0 0 1  389.5 519.33 L 324.58 584.25 A 64.92 64.92 0 0 0 389.5 519.33" fill="#ff2181"/><path d="M 0 584.25 A 64.92 64.92 0 0 1  64.92 649.17 L 0 584.25 A 64.92 64.92 0 0 0 64.92 649.17" fill="#ff2b86"/><path d="M 64.92 584.25 A 64.92 64.92 0 0 1  129.84 649.17 L 64.92 584.25 A 64.92 64.92 0 0 0 129.84 649.17" fill="#b8d3ff"/><path d="M 129.83 649.17 A 64.92 64.92 0 0 1  194.75 584.25 L 129.83 649.17 A 64.92 64.92 0 0 0 194.75 584.25" fill="#ff0e76"/><path d="M 194.75 649.17 A 64.92 64.92 0 0 1  259.67 584.25 L 194.75 649.17 A 64.92 64.92 0 0 0 259.67 584.25" fill="#75aaff"/><path d="M 324.58 584.25 A 64.92 64.92 0 0 1  389.5 649.17 L 324.58 584.25 A 64.92 64.92 0 0 0 389.5 649.17" fill="#ffeaf3"/><path d="M 389.5 584.25 A 64.92 64.92 0 0 1  454.42 649.17 L 389.5 584.25 A 64.92 64.92 0 0 0 454.42 649.17" fill="#ff8ebf"/><path d="M 0 714.0899999999999 A 64.92 64.92 0 0 1  64.92 649.17 L 0 714.0899999999999 A 64.92 64.92 0 0 0 64.92 649.17" fill="#ff4193"/><path d="M 64.92 714.0899999999999 A 64.92 64.92 0 0 1  129.84 649.17 L 64.92 714.0899999999999 A 64.92 64.92 0 0 0 129.84 649.17" fill="#ffdceb"/><path d="M 129.83 649.17 A 64.92 64.92 0 0 1  194.75 714.0899999999999 L 129.83 649.17 A 64.92 64.92 0 0 0 194.75 714.0899999999999" fill="#ff0671"/><path d="M 194.75 714.0899999999999 A 64.92 64.92 0 0 1  259.67 649.17 L 194.75 714.0899999999999 A 64.92 64.92 0 0 0 259.67 649.17" fill="#6da5ff"/><path d="M 259.67 714.0899999999999 A 64.92 64.92 0 0 1  324.59000000000003 649.17 L 259.67 714.0899999999999 A 64.92 64.92 0 0 0 324.59000000000003 649.17" fill="#9ac1ff"/><path d="M 324.58 714.0899999999999 A 64.92 64.92 0 0 1  389.5 649.17 L 324.58 714.0899999999999 A 64.92 64.92 0 0 0 389.5 649.17" fill="#ff1278"/><path d="M 389.5 714.0899999999999 A 64.92 64.92 0 0 1  454.42 649.17 L 389.5 714.0899999999999 A 64.92 64.92 0 0 0 454.42 649.17" fill="#4d92ff"/><path d="M 454.42 649.17 A 64.92 64.92 0 0 1  519.34 714.0899999999999 L 454.42 649.17 A 64.92 64.92 0 0 0 519.34 714.0899999999999" fill="#c6dcff"/><path d="M 0 779 A 64.92 64.92 0 0 1  64.92 714.08 L 0 779 A 64.92 64.92 0 0 0 64.92 714.08" fill="#d9e8ff"/><path d="M 64.92 779 A 64.92 64.92 0 0 1  129.84 714.08 L 64.92 779 A 64.92 64.92 0 0 0 129.84 714.08" fill="#adcdff"/><path d="M 129.83 714.08 A 64.92 64.92 0 0 1  194.75 779 L 129.83 714.08 A 64.92 64.92 0 0 0 194.75 779" fill="#ffe4ef"/><path d="M 194.75 779 A 64.92 64.92 0 0 1  259.67 714.08 L 194.75 779 A 64.92 64.92 0 0 0 259.67 714.08" fill="#ffdceb"/><path d="M 259.67 714.08 A 64.92 64.92 0 0 1  324.59000000000003 779 L 259.67 714.08 A 64.92 64.92 0 0 0 324.59000000000003 779" fill="#ffabcf"/><path d="M 324.58 779 A 64.92 64.92 0 0 1  389.5 714.08 L 324.58 779 A 64.92 64.92 0 0 0 389.5 714.08" fill="#ffe2ef"/><path d="M 389.5 779 A 64.92 64.92 0 0 1  454.42 714.08 L 389.5 779 A 64.92 64.92 0 0 0 454.42 714.08" fill="#ff509c"/><path d="M 454.42 714.08 A 64.92 64.92 0 0 1  519.34 779 L 454.42 714.08 A 64.92 64.92 0 0 0 519.34 779" fill="#ff9dc7"/></g></svg>